<svg width="202" height="45" viewBox="0 0 202 45" fill="none" xmlns="http://www.w3.org/2000/svg">
<path d="M75.7366 8.05529L83.5608 29.2513H79.7994L77.9188 23.9005H69.6781L67.8836 29.2513H64.1509L71.9464 8.05529H75.7366ZM73.8273 11.2336H73.7411C73.6742 11.8249 73.5737 12.3324 73.4396 12.7561L70.6257 20.9299H76.9427L74.1144 12.7561C74.0187 12.4999 73.9229 11.9923 73.8273 11.2336ZM92.9002 13.7461C94.7762 13.7461 96.2501 14.4211 97.322 15.7711C98.394 17.1211 98.93 18.9589 98.93 21.2845C98.93 23.8268 98.3222 25.8518 97.1067 27.3595C95.8912 28.8672 94.245 29.621 92.168 29.621C90.3879 29.621 89.0049 28.8622 88.019 27.3447H87.9616V36.2133H84.6453V14.1156H87.9616V16.5398H88.019C89.1867 14.6774 90.8137 13.7461 92.9002 13.7461ZM91.8094 16.5399C90.6513 16.5399 89.7157 16.9588 89.0027 17.7963C88.2896 18.6339 87.9331 19.7179 87.9331 21.0482V22.9844C87.9331 24.098 88.2729 25.0168 88.9524 25.7411C89.6319 26.4655 90.4789 26.8275 91.4935 26.8275C92.7569 26.8275 93.738 26.3447 94.4366 25.379C95.1353 24.4133 95.4846 23.0288 95.4846 21.2255C95.4846 19.7672 95.1616 18.6216 94.5156 17.789C93.8695 16.9562 92.9675 16.5399 91.8094 16.5399ZM109.333 13.7461C111.209 13.7461 112.683 14.4211 113.755 15.7711C114.826 17.1211 115.363 18.9589 115.363 21.2845C115.363 23.8268 114.755 25.8518 113.539 27.3595C112.323 28.8672 110.678 29.621 108.6 29.621C106.82 29.621 105.437 28.8622 104.451 27.3447H104.394V36.2133H101.078V14.1156H104.394V16.5398H104.451C105.619 14.6774 107.246 13.7461 109.333 13.7461ZM132.749 7.70068C133.61 7.70068 134.505 7.77459 135.433 7.9224C136.362 8.07021 137.137 8.28699 137.759 8.57277V12.1498C136.295 11.263 134.658 10.8195 132.849 10.8195C131.442 10.8195 130.187 11.1496 129.08 11.8098C127.975 12.4701 127.122 13.4086 126.518 14.6256C125.915 15.8426 125.614 17.259 125.614 18.8751C125.614 21.2204 126.235 23.0779 127.48 24.4476C128.724 25.8173 130.385 26.5021 132.462 26.5021C134.481 26.5021 136.247 26.0046 137.759 25.0092V28.3498C137.061 28.744 136.182 29.0544 135.124 29.281C134.068 29.5077 132.993 29.621 131.902 29.621C129.911 29.621 128.164 29.1849 126.662 28.3128C125.159 27.4408 124.011 26.2041 123.217 24.6028C122.422 23.0015 122.025 21.1613 122.025 19.0821C122.025 16.8847 122.484 14.9138 123.402 13.1696C124.322 11.4256 125.606 10.078 127.258 9.12706C128.909 8.17613 130.739 7.70068 132.749 7.70068ZM108.242 16.5399C107.084 16.5399 106.148 16.9588 105.435 17.7963C104.722 18.6339 104.365 19.7179 104.365 21.0482V22.9844C104.365 24.098 104.705 25.0168 105.385 25.7411C106.064 26.4655 106.911 26.8275 107.926 26.8275C109.189 26.8275 110.17 26.3447 110.869 25.379C111.568 24.4133 111.917 23.0288 111.917 21.2255C111.917 19.7672 111.594 18.6216 110.947 17.789C110.302 16.9562 109.4 16.5399 108.242 16.5399ZM145.95 13.7461C147.979 13.7461 149.556 14.3867 150.68 15.6676C151.805 16.9487 152.367 18.7224 152.367 20.9888V22.6887H142.361C142.428 24.0683 142.835 25.1177 143.581 25.837C144.327 26.5564 145.395 26.916 146.783 26.916C147.615 26.916 148.415 26.7805 149.18 26.5096C149.945 26.2386 150.615 25.8912 151.19 25.4675V28.3498C150.635 28.7243 149.888 29.0297 148.95 29.2662C148.012 29.5027 147.021 29.621 145.979 29.621C143.748 29.621 142.021 28.9336 140.796 27.559C139.571 26.1843 138.958 24.2751 138.958 21.8314C138.958 20.2153 139.262 18.8012 139.87 17.5892C140.478 16.3771 141.32 15.4336 142.397 14.7586C143.474 14.0836 144.658 13.7461 145.95 13.7461ZM145.951 16.4215C145.051 16.4215 144.27 16.7639 143.61 17.4488C142.949 18.1336 142.534 19.0229 142.361 20.1168H149.066C149.066 18.9145 148.792 17.9981 148.247 17.3675C147.701 16.7368 146.936 16.4215 145.951 16.4215ZM163.976 20.7524V29.2514H167.291V19.9542C167.291 17.8651 166.863 16.3082 166.007 15.2834C165.15 14.2585 163.941 13.7461 162.382 13.7461C160.305 13.7461 158.717 14.6774 157.616 16.5398H157.558V14.1156H154.242V29.2514H157.558V20.6489C157.558 19.4762 157.885 18.4982 158.542 17.7149C159.197 16.9315 160.028 16.5398 161.033 16.5398C162.066 16.5398 162.815 16.8871 163.279 17.5818C163.743 18.2765 163.976 19.3334 163.976 20.7524ZM177.894 29.1036C177.694 29.2218 177.337 29.3376 176.825 29.4509C176.313 29.5643 175.818 29.6209 175.339 29.6209C172.458 29.6209 171.018 28.0246 171.018 24.8319V16.8649H168.577V14.1155H171.018V10.6273L174.349 9.57781V14.1155H177.894V16.8649H174.349V24.1963C174.349 25.1521 174.516 25.8295 174.851 26.2287C175.186 26.6277 175.712 26.8273 176.43 26.8273C176.622 26.8273 176.864 26.7855 177.155 26.7017C177.447 26.6179 177.694 26.5071 177.894 26.369V29.1036ZM185.239 13.7461C187.268 13.7461 188.845 14.3867 189.969 15.6676C191.094 16.9487 191.656 18.7224 191.656 20.9888V22.6887H181.649C181.716 24.0683 182.123 25.1177 182.87 25.837C183.617 26.5564 184.684 26.916 186.071 26.916C186.904 26.916 187.703 26.7805 188.469 26.5096C189.234 26.2386 189.905 25.8912 190.479 25.4675V28.3498C189.924 28.7243 189.177 29.0297 188.239 29.2662C187.301 29.5027 186.311 29.621 185.267 29.621C183.037 29.621 181.31 28.9336 180.085 27.559C178.859 26.1843 178.247 24.2751 178.247 21.8314C178.247 20.2153 178.551 18.8012 179.159 17.5892C179.767 16.3771 180.609 15.4336 181.686 14.7586C182.762 14.0836 183.947 13.7461 185.239 13.7461ZM185.239 16.4215C184.34 16.4215 183.559 16.7639 182.899 17.4488C182.238 18.1336 181.823 19.0229 181.65 20.1168H188.355C188.355 18.9145 188.082 17.9981 187.537 17.3675C186.991 16.7368 186.225 16.4215 185.239 16.4215ZM201.154 17.0866C201.546 17.1949 201.829 17.3132 202 17.4412V14.0564C201.685 13.9184 201.239 13.8495 200.665 13.8495C199.804 13.8495 199.043 14.1303 198.382 14.692C197.722 15.2536 197.23 16.042 196.904 17.0569H196.847V14.1155H193.53V29.2513H196.847V21.5061C196.847 20.1462 197.143 19.0425 197.737 18.195C198.33 17.3477 199.11 16.924 200.077 16.924C200.402 16.924 200.761 16.9781 201.154 17.0866Z" fill="#9EABB2"/>
<path d="M32.095 44.0314L0 33.0297L32.0749 37.8534V29.6059V0L42.7667 4.58012V39.4595L32.095 44.0314ZM10.6913 7.33926L14.7006 8.2572V14.8631L21.3829 10.0917V15.5967L14.7006 19.2671L21.3829 22.9376V28.4425L14.7006 23.671V30.2771L10.6913 31.195L3.56396 24.772V22.0195L7.67623 19.2671L3.56396 16.5146V13.7621L10.6913 7.33926ZM10.6919 21.1018L5.70292 23.6713L10.6919 27.5247V21.1018ZM10.6919 11.0098L5.70292 14.8633L10.6919 17.4328V11.0098ZM26.7289 11.9279L21.3831 10.092V28.4427L26.7289 26.6068V11.9279Z" fill="#9EABB2"/>
</svg>
