<svg width="165" height="55" viewBox="0 0 165 55" fill="none" xmlns="http://www.w3.org/2000/svg">
<path d="M159.861 33.613L164.438 36.7129C162.952 38.9359 159.399 42.7496 153.256 42.7496C145.627 42.7496 139.946 36.7537 139.946 29.1263C139.946 21.0094 145.687 15.5029 152.613 15.5029C159.58 15.5029 162.993 21.1317 164.097 24.1705L164.699 25.7204L146.751 33.2663C148.117 35.9991 150.245 37.3859 153.256 37.3859C156.267 37.3859 158.355 35.8768 159.861 33.613ZM145.788 28.698L157.773 23.6402C157.11 21.9475 155.143 20.7442 152.794 20.7442C149.803 20.7442 145.647 23.4363 145.788 28.698Z" fill="#9EABB2"/>
<path d="M131.293 1.61475H137.075V41.5058H131.293V1.61475Z" fill="#9EABB2"/>
<path d="M122.179 16.5633H127.76V40.7917C127.76 50.846 121.918 54.986 115.012 54.986C108.507 54.986 104.593 50.5401 103.127 46.9303L108.246 44.7685C109.17 46.9915 111.398 49.6224 115.012 49.6224C119.448 49.6224 122.179 46.8283 122.179 41.6074V39.6496H121.978C120.653 41.2811 118.123 42.7495 114.911 42.7495C108.206 42.7495 102.063 36.8148 102.063 29.1669C102.063 21.4783 108.206 15.4824 114.911 15.4824C118.103 15.4824 120.653 16.9304 121.978 18.5212H122.179V16.5633ZM122.58 29.1669C122.58 24.3539 119.428 20.8461 115.413 20.8461C111.358 20.8461 107.945 24.3539 107.945 29.1669C107.945 33.9188 111.358 37.3654 115.413 37.3654C119.428 37.3858 122.58 33.9188 122.58 29.1669Z" fill="#9EABB2"/>
<path d="M70.3234 29.0651C70.3234 36.9169 64.3007 42.6885 56.9129 42.6885C49.5251 42.6885 43.5024 36.8965 43.5024 29.0651C43.5024 21.1726 49.5251 15.4214 56.9129 15.4214C64.3007 15.4214 70.3234 21.1726 70.3234 29.0651ZM64.4613 29.0651C64.4613 24.1705 60.9682 20.8055 56.9129 20.8055C52.8577 20.8055 49.3645 24.1705 49.3645 29.0651C49.3645 33.919 52.8577 37.3248 56.9129 37.3248C60.9682 37.3248 64.4613 33.919 64.4613 29.0651Z" fill="#9EABB2"/>
<path d="M99.6139 29.1263C99.6139 36.978 93.5913 42.7496 86.2034 42.7496C78.8156 42.7496 72.793 36.978 72.793 29.1263C72.793 21.2337 78.8156 15.5029 86.2034 15.5029C93.5913 15.5029 99.6139 21.2133 99.6139 29.1263ZM93.7318 29.1263C93.7318 24.2317 90.2386 20.8666 86.1834 20.8666C82.1281 20.8666 78.635 24.2317 78.635 29.1263C78.635 33.9801 82.1281 37.3859 86.1834 37.3859C90.2587 37.3859 93.7318 33.9597 93.7318 29.1263Z" fill="#9EABB2"/>
<path d="M21.4596 36.7742C13.048 36.7742 6.46317 29.8809 6.46317 21.3357C6.46317 12.7906 13.048 5.89731 21.4596 5.89731C25.9967 5.89731 29.3092 7.7124 31.7584 10.0373L35.7936 5.9381C32.3807 2.61384 27.8236 0.0849609 21.4596 0.0849609C9.93625 0.0849609 0.239746 9.62946 0.239746 21.3357C0.239746 33.042 9.93625 42.5865 21.4596 42.5865C27.683 42.5865 32.3807 40.5063 36.0546 36.6314C39.8288 32.7973 40.9932 27.4132 40.9932 23.0489C40.9932 21.6824 40.8325 20.2752 40.6519 19.2351H21.4596V24.9047H35.1311C34.7296 28.4533 33.6254 30.8802 31.9993 32.5322C30.0319 34.5512 26.9202 36.7742 21.4596 36.7742Z" fill="#9EABB2"/>
</svg>
