<svg width="139" height="56" viewBox="0 0 139 56" fill="none" xmlns="http://www.w3.org/2000/svg">
<g clip-path="url(#clip0_30_432)">
<path d="M27.0278 51.5985V55.4596H0V51.5985H27.0278ZM69.2661 51.5983C66.5548 54.0908 63.0035 55.4695 59.3207 55.4594L30.8889 55.4212V51.5983H69.2661ZM109.453 51.5983L108.105 55.4594L106.769 51.5983H109.453ZM96.5279 51.5985V55.4596H77.2223V51.5985H96.5279ZM139 51.5985V55.4596H119.694V51.5985H139ZM73.6393 44.2272C73.3079 45.5817 72.7849 46.8818 72.0859 48.0883H30.8889V44.2272H73.6393ZM112.041 44.2274L110.686 48.0885H105.537L104.181 44.2274H112.041ZM96.5279 44.2272V48.0883H77.2223V44.2272H96.5279ZM139 44.2272V48.0883H119.694V44.2272H139ZM27.0278 44.2272V48.0883H0V44.2272H27.0278ZM19.3055 36.856V40.7172H7.72219V36.856H19.3055ZM50.1945 36.856V40.7172H38.6111V36.856H50.1945ZM73.5467 36.856C73.8888 38.1146 74.0625 39.4129 74.0632 40.7172H61.0758V36.856H73.5467ZM114.629 36.856L113.273 40.7172H102.949L101.593 36.856H114.629ZM96.5278 36.856V40.7172H84.9445V36.856H96.5278ZM131.278 36.856V40.7172H119.694V36.856H131.278ZM19.3055 29.4848V33.346H7.72219V29.4848H19.3055ZM96.5278 29.4848V33.346H84.9445V29.4848H96.5278ZM131.278 29.4848V33.346H119.694V29.4848H131.278ZM68.8609 29.4847C70.1468 30.5786 71.2361 31.8844 72.0816 33.3457H38.611V29.4847H68.8609ZM117.217 29.4847L115.861 33.3458H100.361L99.0058 29.4847H117.217ZM107.026 22.1138L108.111 25.2347L109.196 22.1138H131.278V25.9749H119.695V22.4269L118.449 25.9749H97.7735L96.5277 22.4265V25.9749H84.9446V22.1138H107.026ZM38.6111 22.1136L72.0819 22.1138C71.2363 23.5751 70.147 24.881 68.861 25.9749H38.6111V22.1136ZM19.3055 22.1136V25.9747H7.72219V22.1136H19.3055ZM19.3055 14.7424V18.6035H7.72219V14.7424H19.3055ZM50.1945 14.7424V18.6035H38.6111V14.7424H50.1945ZM74.0632 14.7425C74.0625 16.0467 73.8888 17.345 73.5467 18.6036H61.0758V14.7425H74.0632ZM104.462 14.7424L105.805 18.6036H84.9446V14.7424H104.462ZM131.278 14.7424V18.6036H110.417L111.76 14.7424H131.278ZM27.0278 7.3712V11.2323H0V7.3712H27.0278ZM72.0859 7.3712C72.7849 8.5777 73.3079 9.87783 73.6393 11.2322H30.8889V7.3712H72.0859ZM139 7.37107V11.2322H112.98L114.323 7.37107H139ZM101.899 7.37107L103.242 11.2322H77.2223V7.37107H101.899ZM27.0278 2.67607e-05V3.86114H0V2.67607e-05H27.0278ZM59.3207 1.33443e-05C63.0025 -0.00494683 66.552 1.37306 69.266 3.8611H30.8889V1.33443e-05H59.3207ZM139 0.000157073V3.86132H115.544L116.886 0.000157073H139ZM99.3359 0.000157073L100.679 3.86132H77.2223V0.000157073H99.3359Z" fill="#9EABB2"/>
</g>
<defs>
<clipPath id="clip0_30_432">
<rect width="139" height="55.6543" fill="white"/>
</clipPath>
</defs>
</svg>
