<svg width="161" height="35" viewBox="0 0 161 35" fill="none" xmlns="http://www.w3.org/2000/svg">
<path d="M161 15.5493V12.7179H157.484V8.31594L157.365 8.35234L154.063 9.36273L153.998 9.38259V12.7179H148.785V10.86C148.785 9.99486 148.979 9.33275 149.36 8.89122C149.739 8.45494 150.28 8.2332 150.971 8.2332C151.467 8.2332 151.982 8.3502 152.499 8.5809L152.628 8.63872V5.6568L152.568 5.63441C152.085 5.46095 151.428 5.37354 150.615 5.37354C149.589 5.37354 148.657 5.59664 147.845 6.03895C147.031 6.48185 146.392 7.11417 145.944 7.9182C145.497 8.72126 145.27 9.64872 145.27 10.6751V12.7179H142.822V15.5493H145.27V27.4776H148.785V15.5493H153.998V23.1296C153.998 26.2515 155.47 27.8336 158.374 27.8336C158.852 27.8336 159.354 27.7776 159.867 27.6679C160.389 27.5556 160.744 27.4433 160.954 27.3234L161 27.2961V24.4384L160.857 24.533C160.666 24.6603 160.429 24.7641 160.15 24.8412C159.87 24.9198 159.637 24.9594 159.456 24.9594C158.775 24.9594 158.272 24.776 157.96 24.4143C157.644 24.0492 157.484 23.4107 157.484 22.5177V15.5493H161ZM134.973 24.9596C133.697 24.9596 132.692 24.5366 131.983 23.7034C131.27 22.8658 130.908 21.6719 130.908 20.1549C130.908 18.5899 131.27 17.365 131.983 16.5126C132.693 15.666 133.689 15.2363 134.945 15.2363C136.163 15.2363 137.133 15.6467 137.828 16.4568C138.527 17.2709 138.881 18.4861 138.881 20.0695C138.881 21.6723 138.548 22.9034 137.89 23.7269C137.238 24.5444 136.257 24.9596 134.973 24.9596ZM135.13 12.3623C132.696 12.3623 130.763 13.0754 129.385 14.4819C128.007 15.8887 127.309 17.8353 127.309 20.2684C127.309 22.5793 127.99 24.4381 129.335 25.7923C130.68 27.1471 132.51 27.8333 134.774 27.8333C137.133 27.8333 139.028 27.1103 140.405 25.6842C141.783 24.2596 142.481 22.3314 142.481 19.9552C142.481 17.6081 141.826 15.7355 140.534 14.3902C139.241 13.0444 137.422 12.3623 135.13 12.3623ZM121.642 12.3622C119.986 12.3622 118.617 12.7856 117.571 13.6206C116.518 14.4604 115.984 15.5621 115.984 16.8951C115.984 17.588 116.1 18.2036 116.326 18.7255C116.555 19.2494 116.908 19.7104 117.377 20.0974C117.842 20.4813 118.561 20.8835 119.513 21.2926C120.313 21.622 120.911 21.9007 121.29 22.1203C121.66 22.3355 121.924 22.5519 122.072 22.7626C122.216 22.9688 122.29 23.2508 122.29 23.5993C122.29 24.5908 121.547 25.0732 120.019 25.0732C119.453 25.0732 118.806 24.9551 118.098 24.7217C117.389 24.4886 116.727 24.1536 116.13 23.7239L115.984 23.6194V27.0031L116.038 27.028C116.535 27.2576 117.162 27.4511 117.901 27.6035C118.639 27.7559 119.309 27.8336 119.891 27.8336C121.688 27.8336 123.134 27.408 124.19 26.5682C125.252 25.7225 125.791 24.5949 125.791 23.2156C125.791 22.2208 125.501 21.3675 124.93 20.6795C124.362 19.997 123.378 19.3705 122.004 18.8166C120.91 18.3774 120.209 18.0128 119.919 17.733C119.641 17.4626 119.499 17.0803 119.499 16.5961C119.499 16.1668 119.674 15.823 120.033 15.5444C120.394 15.2645 120.897 15.1222 121.528 15.1222C122.114 15.1222 122.713 15.2146 123.309 15.3959C123.904 15.5771 124.427 15.8199 124.864 16.117L125.007 16.2151V13.0052L124.952 12.9815C124.55 12.8088 124.018 12.661 123.373 12.5411C122.731 12.4223 122.148 12.3622 121.642 12.3622ZM106.822 24.9596C105.546 24.9596 104.54 24.5366 103.831 23.7034C103.118 22.8658 102.757 21.6723 102.757 20.1549C102.757 18.5899 103.119 17.365 103.832 16.5126C104.541 15.666 105.537 15.2363 106.793 15.2363C108.012 15.2363 108.982 15.6467 109.677 16.4568C110.375 17.2709 110.73 18.4861 110.73 20.0695C110.73 21.6723 110.396 22.9034 109.739 23.7269C109.086 24.5444 108.105 24.9596 106.822 24.9596ZM106.978 12.3623C104.544 12.3623 102.611 13.0754 101.233 14.4819C99.8559 15.8887 99.157 17.8353 99.157 20.2684C99.157 22.5802 99.8391 24.4381 101.184 25.7923C102.528 27.1471 104.358 27.8333 106.622 27.8333C108.981 27.8333 110.876 27.1103 112.254 25.6842C113.631 24.2596 114.33 22.3314 114.33 19.9552C114.33 17.6081 113.674 15.7355 112.382 14.3902C111.089 13.0444 109.271 12.3623 106.978 12.3623ZM93.8217 15.2738V12.7179H90.3497V27.4772H93.8217V19.9273C93.8217 18.6433 94.1127 17.5888 94.687 16.7921C95.2541 16.005 96.0099 15.6061 96.9325 15.6061C97.2451 15.6061 97.5961 15.6577 97.9763 15.7597C98.3527 15.8612 98.6252 15.9712 98.786 16.087L98.9318 16.1927V12.6925L98.8756 12.6684C98.5522 12.531 98.0949 12.4617 97.5161 12.4617C96.6438 12.4617 95.8629 12.742 95.1942 13.2939C94.6072 13.7791 94.1828 14.4443 93.8585 15.2738H93.8217ZM84.1323 12.3622C82.5396 12.3622 81.1189 12.7038 79.9103 13.377C78.6994 14.0518 77.763 15.0153 77.1258 16.2404C76.4915 17.4626 76.1695 18.8902 76.1695 20.4821C76.1695 21.8766 76.4818 23.1564 77.0989 24.2842C77.7164 25.4139 78.5906 26.2978 79.6969 26.9108C80.8017 27.5231 82.0786 27.8336 83.4924 27.8336C85.1423 27.8336 86.551 27.5036 87.6806 26.8532L87.7261 26.8269V23.6462L87.5803 23.7527C87.0687 24.1253 86.4969 24.4228 85.8817 24.6372C85.2681 24.8513 84.7086 24.9596 84.2182 24.9596C82.8558 24.9596 81.7623 24.5332 80.9684 23.693C80.1727 22.8514 79.7693 21.6698 79.7693 20.1829C79.7693 18.6866 80.19 17.4747 81.0192 16.5803C81.8456 15.6887 82.9413 15.2364 84.2754 15.2364C85.4166 15.2364 86.5286 15.6229 87.5807 16.386L87.7261 16.4917V13.1403L87.6792 13.1138C87.2832 12.8923 86.7434 12.7093 86.0729 12.5705C85.4055 12.4321 84.7528 12.3622 84.1323 12.3622ZM73.7783 12.7179H70.3064V27.4772H73.7783V12.7179ZM72.0778 6.4303C71.5064 6.4303 71.008 6.62479 70.5986 7.01025C70.1874 7.39689 69.9787 7.88359 69.9787 8.4579C69.9787 9.02325 70.1849 9.50099 70.592 9.87731C70.9965 10.2525 71.4965 10.4427 72.0778 10.4427C72.6589 10.4427 73.1608 10.2525 73.5702 9.8779C73.9824 9.50099 74.1912 9.02325 74.1912 8.4579C74.1912 7.90364 73.988 7.42181 73.5871 7.02583C73.1869 6.63063 72.679 6.4303 72.0778 6.4303ZM63.4153 11.629V27.4771H66.9585V6.88227H62.0547L55.8214 22.1795L49.7725 6.88227H44.6689V27.4771H47.9986V11.6274H48.113L54.5005 27.4771H57.0132L63.301 11.629H63.4153Z" fill="#9EABB2"/>
<path d="M16.3325 16.3325H0V0H16.3325V16.3325Z" fill="#9EABB2"/>
<path d="M34.3655 16.3325H18.0332V0H34.3655V16.3325Z" fill="#9EABB2"/>
<path d="M16.3321 34.3721H0V18.0396H16.3321V34.3721Z" fill="#9EABB2"/>
<path d="M34.3655 34.3721H18.0332V18.0396H34.3655V34.3721Z" fill="#9EABB2"/>
</svg>
