<svg width="157" height="42" viewBox="0 0 157 42" fill="none" xmlns="http://www.w3.org/2000/svg">
<g clip-path="url(#clip0_31_453)">
<path d="M105.706 0.362793C115.81 0.362793 122.194 8.91228 122.194 21.0749C122.194 33.2375 115.81 41.7854 105.706 41.7854C95.6592 41.7854 89.2744 33.2375 89.2744 21.0749C89.2744 8.91228 95.6592 0.362793 105.706 0.362793ZM142.625 0.362793C147.899 0.362793 151.896 2.3722 155.338 5.81418L151.23 10.1167C148.787 7.53517 146.012 6.27216 142.181 6.27216C137.629 6.27216 135.686 8.56682 135.686 11.264L135.688 11.4343C135.689 11.4905 135.692 11.5461 135.695 11.6012L135.706 11.7647C135.713 11.8456 135.722 11.9253 135.733 12.0039L135.757 12.1594C135.775 12.2621 135.797 12.3628 135.822 12.4617L135.863 12.6086C136.015 13.1181 136.274 13.5786 136.672 14.0111L136.789 14.1339L136.914 14.2553L137.046 14.3753L137.187 14.4942C137.356 14.6322 137.542 14.768 137.745 14.9024L137.924 15.0172C137.985 15.0553 138.047 15.0934 138.111 15.1314L138.308 15.2451L138.514 15.3584L138.729 15.4714L138.954 15.5842L139.188 15.697L139.432 15.8098C139.474 15.8286 139.516 15.8475 139.558 15.8663L139.817 15.9794L140.087 16.0928L140.367 16.2066L140.657 16.3209L140.959 16.4359L141.271 16.5516L141.594 16.6682L141.929 16.7858L142.452 16.9641L142.815 17.0845L143.19 17.2063L143.775 17.3917L144.18 17.5172L144.636 17.662L145.085 17.8073L145.527 17.9533L145.962 18.1002L146.389 18.2483L146.81 18.3977C146.948 18.4478 147.086 18.4981 147.222 18.5487L147.627 18.7015L148.025 18.8563L148.415 19.0134C149.058 19.2771 149.668 19.5511 150.244 19.8397L150.585 20.0147C154.407 22.019 156.615 24.7467 156.615 29.6228C156.615 36.8522 152.173 41.7854 142.237 41.7854C136.573 41.7854 131.689 39.261 128.414 35.3024L132.577 31.114C135.187 34.041 139.017 35.8761 142.681 35.8761C148.121 35.8761 150.729 33.9253 150.729 30.0237C150.729 28.1582 149.904 26.8546 147.829 25.6743L147.602 25.5483L147.366 25.4231C147.325 25.4023 147.285 25.3815 147.244 25.3608L146.992 25.2366L146.731 25.1129C146.686 25.0924 146.641 25.0718 146.596 25.0513L146.319 24.9282C146.272 24.9077 146.225 24.8872 146.177 24.8667L145.885 24.7439C145.836 24.7235 145.786 24.703 145.735 24.6825L145.427 24.5598C145.375 24.5393 145.323 24.5188 145.27 24.4983L144.946 24.3753L144.611 24.2519L144.266 24.1281L143.909 24.0038L143.542 23.8788L143.163 23.753L142.574 23.5625L142.166 23.4342L141.47 23.2185L140.993 23.0682L140.525 22.9183L140.068 22.7686L139.621 22.6188L139.185 22.4687C139.113 22.4436 139.041 22.4185 138.97 22.3934L138.549 22.2422C138.41 22.1917 138.273 22.141 138.137 22.0901L137.736 21.9367C137.67 21.911 137.604 21.8852 137.539 21.8594L137.153 21.7036C137.026 21.6514 136.901 21.5988 136.777 21.5459L136.411 21.3861L136.055 21.2237C131.845 19.2603 129.802 16.7138 129.802 11.5508C129.802 4.60822 135.464 0.362793 142.625 0.362793ZM4.43084 32.0981C6.87604 32.0981 8.86009 34.1487 8.86009 36.6763C8.86009 39.2039 6.87604 41.2546 4.43084 41.2546C1.98405 41.2546 0 39.2039 0 36.6763C0 34.1487 1.98405 32.0981 4.43084 32.0981ZM35.3485 32.0981C37.7952 32.0981 39.7793 34.1487 39.7793 36.6763C39.7793 39.2039 37.7952 41.2546 35.3485 41.2546C32.9017 41.2546 30.9192 39.2039 30.9192 36.6763C30.9192 34.1487 32.9017 32.0981 35.3485 32.0981ZM19.8897 32.0981C22.3364 32.0981 24.3189 34.1487 24.3189 36.6763C24.3189 39.2039 22.3364 41.2546 19.8897 41.2546C17.4429 41.2546 15.4588 39.2039 15.4588 36.6763C15.4588 34.1487 17.4429 32.0981 19.8897 32.0981ZM69.6209 0.993506C76.3939 0.993506 82.1116 4.72391 82.1116 12.985C82.1116 19.411 78.836 23.3696 73.5621 24.7467L81.4999 41.1547H74.7839L67.0664 25.2633H58.295V41.1547H52.5774V0.993506H69.6209ZM105.706 6.38785C98.9332 6.38785 95.2139 12.0674 95.2139 21.0749C95.2139 30.0824 98.9332 35.762 105.706 35.762C112.535 35.762 116.254 30.0824 116.254 21.0749C116.254 12.0674 112.535 6.38785 105.706 6.38785ZM4.43084 16.4967C6.87604 16.4967 8.86009 18.5457 8.86009 21.0749C8.86009 23.6025 6.87604 25.6531 4.43084 25.6531C1.98405 25.6531 0 23.6025 0 21.0749C0 18.5457 1.98405 16.4967 4.43084 16.4967ZM19.8897 16.4967C22.3364 16.4967 24.3189 18.5457 24.3189 21.0749C24.3189 23.6025 22.3364 25.6531 19.8897 25.6531C17.4429 25.6531 15.4588 23.6025 15.4588 21.0749C15.4588 18.5457 17.4429 16.4967 19.8897 16.4967ZM35.3485 16.4967C37.7952 16.4967 39.7793 18.5457 39.7793 21.0749C39.7793 23.6025 37.7952 25.6531 35.3485 25.6531C32.9017 25.6531 30.9192 23.6025 30.9192 21.0749C30.9192 18.5457 32.9017 16.4967 35.3485 16.4967ZM69.6209 6.67468H58.295V19.5821H69.6209C73.5066 19.5821 76.226 17.5172 76.226 13.1577C76.226 8.96933 73.5621 6.67468 69.6209 6.67468ZM4.43084 0.895254C6.87604 0.895254 8.86009 2.94428 8.86009 5.47347C8.86009 8.00108 6.87604 10.0517 4.43084 10.0517C1.98405 10.0517 0 8.00108 0 5.47347C0 2.94428 1.98405 0.895254 4.43084 0.895254ZM19.8897 0.895254C22.3364 0.895254 24.3189 2.94428 24.3189 5.47347C24.3189 8.00108 22.3364 10.0517 19.8897 10.0517C17.4429 10.0517 15.4588 8.00108 15.4588 5.47347C15.4588 2.94428 17.4429 0.895254 19.8897 0.895254ZM35.3485 0.895254C37.7952 0.895254 39.7793 2.94428 39.7793 5.47347C39.7793 8.00108 37.7952 10.0517 35.3485 10.0517C32.9017 10.0517 30.9192 8.00108 30.9192 5.47347C30.9192 2.94428 32.9017 0.895254 35.3485 0.895254Z" fill="#9EABB2"/>
</g>
<defs>
<clipPath id="clip0_31_453">
<rect width="157" height="41.7855" fill="white"/>
</clipPath>
</defs>
</svg>
